<svg xmlns="http://www.w3.org/2000/svg" xmlns:xlink="http://www.w3.org/1999/xlink" width="1056" zoomAndPan="magnify" viewBox="0 0 792 611.999999" height="816" preserveAspectRatio="xMidYMid meet" version="1.0"><defs><clipPath id="35f9528725"><path d="M 123.800781 13.558594 L 706.550781 13.558594 L 706.550781 596.308594 L 123.800781 596.308594 Z M 123.800781 13.558594 " clip-rule="nonzero"/></clipPath></defs><g clip-path="url(#35f9528725)"><path fill="#25d366" d="M 629.238281 596.308594 L 201.113281 596.308594 C 158.378906 596.308594 123.800781 561.734375 123.800781 519 L 123.800781 90.871094 C 123.800781 48.136719 158.378906 13.558594 201.113281 13.558594 L 629.628906 13.558594 C 672.363281 13.558594 706.941406 48.136719 706.941406 90.871094 L 706.941406 519.386719 C 706.550781 561.734375 671.972656 596.308594 629.238281 596.308594 Z M 629.238281 596.308594 " fill-opacity="1" fill-rule="nonzero"/></g><path fill="#ffffff" d="M 555.035156 157.304688 C 518.515625 120.785156 469.953125 100.585938 418.285156 100.585938 C 311.445312 100.585938 224.8125 187.21875 224.8125 294.058594 C 224.8125 328.246094 233.746094 361.65625 250.839844 390.792969 L 223.257812 491.027344 L 325.820312 464.21875 C 354.179688 479.761719 386.039062 487.917969 418.285156 487.917969 C 525.121094 487.917969 611.757812 400.894531 611.757812 294.445312 C 611.367188 242.386719 591.554688 193.824219 555.035156 157.304688 Z M 417.894531 455.285156 C 389.148438 455.285156 360.785156 447.515625 335.921875 432.75 L 330.09375 429.253906 L 269.101562 445.183594 L 285.417969 385.742188 L 281.53125 379.527344 C 265.601562 353.886719 257.054688 324.359375 257.054688 294.058594 C 257.054688 205.480469 329.316406 133.21875 417.894531 133.21875 C 461.019531 133.21875 501.421875 149.921875 531.726562 180.226562 C 562.027344 210.53125 578.734375 250.933594 578.734375 294.058594 C 578.734375 383.023438 506.472656 455.285156 417.894531 455.285156 Z M 506.085938 334.460938 C 501.421875 332.128906 477.335938 320.476562 473.0625 318.53125 C 468.789062 316.980469 465.292969 316.203125 462.183594 320.863281 C 459.078125 325.527344 449.753906 336.792969 447.03125 339.898438 C 444.3125 343.007812 441.207031 343.398438 436.542969 341.066406 C 431.882812 338.734375 415.953125 333.683594 397.695312 316.980469 C 383.320312 304.15625 373.605469 288.230469 370.886719 283.566406 C 368.167969 278.90625 370.5 276.1875 372.828125 273.855469 C 375.160156 271.523438 377.492188 268.027344 380.210938 265.308594 C 382.542969 262.589844 383.320312 260.644531 384.871094 257.148438 C 386.425781 254.042969 385.648438 250.933594 384.484375 248.601562 C 383.320312 246.273438 373.605469 222.183594 369.722656 212.859375 C 365.835938 203.535156 361.953125 204.703125 358.84375 204.703125 C 356.125 204.703125 352.628906 204.703125 349.519531 204.703125 C 346.410156 204.703125 340.972656 205.867188 336.699219 210.917969 C 332.425781 215.582031 319.605469 227.625 319.605469 251.320312 C 319.605469 275.019531 337.085938 297.941406 339.417969 301.4375 C 341.75 304.546875 373.605469 353.496094 422.167969 374.476562 C 433.824219 379.527344 442.757812 382.246094 449.753906 384.578125 C 461.40625 388.074219 471.898438 387.6875 480.054688 386.519531 C 489.378906 384.964844 508.804688 374.863281 512.691406 363.597656 C 516.574219 352.332031 516.574219 342.621094 515.410156 340.675781 C 514.242188 338.347656 511.136719 337.179688 506.085938 334.460938 Z M 506.085938 334.460938 " fill-opacity="1" fill-rule="evenodd"/></svg>